<svg width="112" height="24" viewBox="0 0 112 24" fill="none" xmlns="http://www.w3.org/2000/svg">
<path d="M25.448 17V9.544L22.536 15.096H21.304L18.392 9.544V17H16.184V5.64H18.552L21.912 12.104L25.304 5.64H27.656V17H25.448ZM33.5671 17.16C32.8951 17.16 32.2871 17.048 31.7431 16.824C31.1991 16.5893 30.7351 16.2747 30.3511 15.88C29.9671 15.4747 29.6685 15.016 29.4551 14.504C29.2525 13.9813 29.1511 13.432 29.1511 12.856C29.1511 12.056 29.3271 11.3253 29.6791 10.664C30.0418 10.0027 30.5538 9.47467 31.2151 9.08C31.8871 8.67467 32.6765 8.472 33.5831 8.472C34.5005 8.472 35.2845 8.67467 35.9351 9.08C36.5858 9.47467 37.0818 10.0027 37.4231 10.664C37.7751 11.3147 37.9511 12.0187 37.9511 12.776C37.9511 12.904 37.9458 13.0373 37.9351 13.176C37.9245 13.304 37.9138 13.4107 37.9031 13.496H31.4231C31.4658 13.9227 31.5885 14.296 31.7911 14.616C32.0045 14.936 32.2711 15.1813 32.5911 15.352C32.9218 15.512 33.2738 15.592 33.6471 15.592C34.0738 15.592 34.4738 15.4907 34.8471 15.288C35.2311 15.0747 35.4925 14.7973 35.6311 14.456L37.4711 14.968C37.2685 15.3947 36.9751 15.7733 36.5911 16.104C36.2178 16.4347 35.7751 16.696 35.2631 16.888C34.7511 17.0693 34.1858 17.16 33.5671 17.16ZM31.3751 12.136H35.7591C35.7165 11.7093 35.5938 11.3413 35.3911 11.032C35.1991 10.712 34.9431 10.4667 34.6231 10.296C34.3031 10.1147 33.9458 10.024 33.5511 10.024C33.1671 10.024 32.8151 10.1147 32.4951 10.296C32.1858 10.4667 31.9298 10.712 31.7271 11.032C31.5351 11.3413 31.4178 11.7093 31.3751 12.136ZM38.7453 12.808C38.7453 11.9973 38.9053 11.2667 39.2253 10.616C39.5453 9.95467 39.9879 9.432 40.5533 9.048C41.1186 8.664 41.7639 8.472 42.4893 8.472C43.1079 8.472 43.6626 8.62667 44.1533 8.936C44.6546 9.23467 45.0439 9.61867 45.3213 10.088V5.32H47.4653V14.6C47.4653 14.824 47.5026 14.984 47.5773 15.08C47.6519 15.176 47.7799 15.2347 47.9613 15.256V17C47.5879 17.0747 47.2839 17.112 47.0493 17.112C46.6653 17.112 46.3453 17.016 46.0893 16.824C45.8439 16.632 45.7053 16.3813 45.6733 16.072L45.6413 15.544C45.3319 16.0667 44.9106 16.4667 44.3773 16.744C43.8546 17.0213 43.3053 17.16 42.7293 17.16C42.1533 17.16 41.6199 17.048 41.1293 16.824C40.6493 16.6 40.2279 16.2907 39.8653 15.896C39.5133 15.5013 39.2359 15.0427 39.0333 14.52C38.8413 13.9867 38.7453 13.416 38.7453 12.808ZM45.3213 13.928V11.928C45.2146 11.6187 45.0439 11.3413 44.8093 11.096C44.5746 10.8507 44.3133 10.6587 44.0253 10.52C43.7373 10.3707 43.4493 10.296 43.1613 10.296C42.8306 10.296 42.5319 10.3653 42.2653 10.504C41.9986 10.6427 41.7639 10.8293 41.5613 11.064C41.3693 11.2987 41.2199 11.5707 41.1133 11.88C41.0173 12.1893 40.9693 12.5147 40.9693 12.856C40.9693 13.1973 41.0226 13.5227 41.1293 13.832C41.2466 14.1307 41.4119 14.392 41.6253 14.616C41.8386 14.84 42.0839 15.016 42.3613 15.144C42.6493 15.272 42.9586 15.336 43.2893 15.336C43.4919 15.336 43.6946 15.304 43.8973 15.24C44.1106 15.1653 44.3079 15.0693 44.4893 14.952C44.6813 14.824 44.8466 14.6747 44.9853 14.504C45.1346 14.3227 45.2466 14.1307 45.3213 13.928ZM49.5698 17V8.616H51.7138V17H49.5698ZM49.5698 7.448V5.32H51.7138V7.448H49.5698ZM53.1366 11.24C53.1366 10.5467 53.2593 9.86933 53.5046 9.208C53.7606 8.536 54.1286 7.928 54.6086 7.384C55.0886 6.82933 55.6753 6.392 56.3686 6.072C57.062 5.74133 57.8513 5.576 58.7366 5.576C59.782 5.576 60.6833 5.80533 61.4406 6.264C62.2086 6.72267 62.7793 7.32 63.1526 8.056L61.4566 9.224C61.2646 8.79733 61.014 8.46133 60.7046 8.216C60.3953 7.96 60.0646 7.784 59.7126 7.688C59.3606 7.58133 59.014 7.528 58.6726 7.528C58.118 7.528 57.6326 7.64 57.2166 7.864C56.8113 8.088 56.47 8.38133 56.1926 8.744C55.9153 9.10667 55.7073 9.512 55.5686 9.96C55.4406 10.408 55.3766 10.856 55.3766 11.304C55.3766 11.8053 55.4566 12.2907 55.6166 12.76C55.7766 13.2187 56.0006 13.6293 56.2886 13.992C56.5873 14.344 56.9393 14.6267 57.3446 14.84C57.7606 15.0427 58.214 15.144 58.7046 15.144C59.0566 15.144 59.414 15.0853 59.7766 14.968C60.1393 14.8507 60.4753 14.664 60.7846 14.408C61.094 14.152 61.334 13.8213 61.5046 13.416L63.3126 14.456C63.0886 15.0213 62.7206 15.5013 62.2086 15.896C61.7073 16.2907 61.142 16.5893 60.5126 16.792C59.8833 16.9947 59.2593 17.096 58.6406 17.096C57.83 17.096 57.0886 16.9307 56.4166 16.6C55.7446 16.2587 55.1633 15.8107 54.6726 15.256C54.1926 14.6907 53.814 14.0613 53.5366 13.368C53.27 12.664 53.1366 11.9547 53.1366 11.24ZM68.4261 17.16C67.7435 17.16 67.1301 17.048 66.5861 16.824C66.0421 16.5893 65.5781 16.2693 65.1941 15.864C64.8208 15.4587 64.5328 14.9947 64.3301 14.472C64.1275 13.9493 64.0261 13.4 64.0261 12.824C64.0261 12.2373 64.1275 11.6827 64.3301 11.16C64.5328 10.6373 64.8208 10.1733 65.1941 9.768C65.5781 9.36267 66.0421 9.048 66.5861 8.824C67.1301 8.58933 67.7435 8.472 68.4261 8.472C69.1088 8.472 69.7168 8.58933 70.2501 8.824C70.7941 9.048 71.2581 9.36267 71.6421 9.768C72.0261 10.1733 72.3141 10.6373 72.5061 11.16C72.7088 11.6827 72.8101 12.2373 72.8101 12.824C72.8101 13.4 72.7088 13.9493 72.5061 14.472C72.3141 14.9947 72.0261 15.4587 71.6421 15.864C71.2688 16.2693 70.8101 16.5893 70.2661 16.824C69.7221 17.048 69.1088 17.16 68.4261 17.16ZM66.2341 12.824C66.2341 13.3147 66.3301 13.752 66.5221 14.136C66.7141 14.5093 66.9755 14.8027 67.3061 15.016C67.6368 15.2293 68.0101 15.336 68.4261 15.336C68.8315 15.336 69.1995 15.2293 69.5301 15.016C69.8608 14.792 70.1221 14.4933 70.3141 14.12C70.5168 13.736 70.6181 13.2987 70.6181 12.808C70.6181 12.328 70.5168 11.896 70.3141 11.512C70.1221 11.128 69.8608 10.8293 69.5301 10.616C69.1995 10.4027 68.8315 10.296 68.4261 10.296C68.0101 10.296 67.6368 10.408 67.3061 10.632C66.9755 10.8453 66.7141 11.144 66.5221 11.528C66.3301 11.9013 66.2341 12.3333 66.2341 12.824ZM82.0493 17H79.9053V12.296C79.9053 11.624 79.7879 11.1333 79.5533 10.824C79.3186 10.5147 78.9933 10.36 78.5773 10.36C78.2893 10.36 77.9959 10.4347 77.6973 10.584C77.4093 10.7333 77.1479 10.9413 76.9133 11.208C76.6786 11.464 76.5079 11.7627 76.4013 12.104V17H74.2573V8.616H76.1933V10.168C76.4066 9.80533 76.6786 9.50133 77.0093 9.256C77.3399 9 77.7186 8.808 78.1453 8.68C78.5826 8.54133 79.0413 8.472 79.5213 8.472C80.0439 8.472 80.4706 8.568 80.8013 8.76C81.1426 8.94133 81.3986 9.192 81.5693 9.512C81.7506 9.82133 81.8733 10.1733 81.9373 10.568C82.0119 10.9627 82.0493 11.3627 82.0493 11.768V17ZM88.8906 16.568C88.7093 16.6427 88.4906 16.728 88.2346 16.824C87.9786 16.92 87.7013 16.9947 87.4026 17.048C87.1146 17.112 86.8213 17.144 86.5226 17.144C86.128 17.144 85.7653 17.0747 85.4346 16.936C85.104 16.7973 84.8373 16.5787 84.6346 16.28C84.4426 15.9707 84.3466 15.5707 84.3466 15.08V10.264H83.2426V8.616H84.3466V5.896H86.4906V8.616H88.2506V10.264H86.4906V14.36C86.5013 14.648 86.5813 14.856 86.7306 14.984C86.88 15.112 87.0666 15.176 87.2906 15.176C87.5146 15.176 87.7333 15.1387 87.9466 15.064C88.16 14.9893 88.3306 14.9253 88.4586 14.872L88.8906 16.568ZM94.9993 10.472C94.3486 10.472 93.7673 10.6 93.2552 10.856C92.7433 11.1013 92.3753 11.4587 92.1513 11.928V17H90.0073V8.616H91.9753V10.408C92.2739 9.832 92.6526 9.37867 93.1113 9.048C93.5699 8.71733 94.0553 8.536 94.5673 8.504C94.6846 8.504 94.7753 8.504 94.8393 8.504C94.9033 8.504 94.9566 8.50933 94.9993 8.52V10.472ZM99.9574 17.16C99.2747 17.16 98.6614 17.048 98.1174 16.824C97.5734 16.5893 97.1094 16.2693 96.7254 15.864C96.352 15.4587 96.064 14.9947 95.8614 14.472C95.6587 13.9493 95.5574 13.4 95.5574 12.824C95.5574 12.2373 95.6587 11.6827 95.8614 11.16C96.064 10.6373 96.352 10.1733 96.7254 9.768C97.1094 9.36267 97.5734 9.048 98.1174 8.824C98.6614 8.58933 99.2747 8.472 99.9574 8.472C100.64 8.472 101.248 8.58933 101.781 8.824C102.325 9.048 102.789 9.36267 103.173 9.768C103.557 10.1733 103.845 10.6373 104.037 11.16C104.24 11.6827 104.341 12.2373 104.341 12.824C104.341 13.4 104.24 13.9493 104.037 14.472C103.845 14.9947 103.557 15.4587 103.173 15.864C102.8 16.2693 102.341 16.5893 101.797 16.824C101.253 17.048 100.64 17.16 99.9574 17.16ZM97.7654 12.824C97.7654 13.3147 97.8614 13.752 98.0534 14.136C98.2454 14.5093 98.5067 14.8027 98.8374 15.016C99.168 15.2293 99.5414 15.336 99.9574 15.336C100.363 15.336 100.731 15.2293 101.061 15.016C101.392 14.792 101.653 14.4933 101.845 14.12C102.048 13.736 102.149 13.2987 102.149 12.808C102.149 12.328 102.048 11.896 101.845 11.512C101.653 11.128 101.392 10.8293 101.061 10.616C100.731 10.4027 100.363 10.296 99.9574 10.296C99.5414 10.296 99.168 10.408 98.8374 10.632C98.5067 10.8453 98.2454 11.144 98.0534 11.528C97.8614 11.9013 97.7654 12.3333 97.7654 12.824ZM105.773 5.32H107.917V14.312C107.917 14.696 107.981 14.9573 108.109 15.096C108.237 15.224 108.413 15.288 108.637 15.288C108.807 15.288 108.983 15.2667 109.165 15.224C109.346 15.1813 109.506 15.128 109.645 15.064L109.933 16.696C109.645 16.8347 109.309 16.9413 108.924 17.016C108.541 17.0907 108.194 17.128 107.885 17.128C107.213 17.128 106.69 16.952 106.317 16.6C105.954 16.2373 105.773 15.7253 105.773 15.064V5.32Z" fill="#0D7FFF"/>
<mask id="path-2-inside-1_1_2" fill="white">
<path d="M11.2483 13.6514C11.705 15.244 10.7841 16.9054 9.19144 17.3621V17.3621C7.59876 17.8187 5.93743 16.8978 5.48074 15.3052L4.65383 12.4214L10.4214 10.7676L11.2483 13.6514Z"/>
</mask>
<path d="M11.2483 13.6514C11.705 15.244 10.7841 16.9054 9.19144 17.3621V17.3621C7.59876 17.8187 5.93743 16.8978 5.48074 15.3052L4.65383 12.4214L10.4214 10.7676L11.2483 13.6514Z" fill="white"/>
<path d="M12.2096 13.3757C12.8185 15.4993 11.5906 17.7144 9.46707 18.3233C7.34351 18.9322 5.1284 17.7044 4.51948 15.5808L6.442 15.0295C6.74646 16.0913 7.85402 16.7053 8.9158 16.4008C9.97758 16.0963 10.5915 14.9888 10.287 13.927L12.2096 13.3757ZM3.63744 12.5048L11.3275 10.2997L9.51526 11.2355L5.67021 12.338L3.63744 12.5048ZM11.3275 10.2997L12.2096 13.3757C12.8185 15.4993 11.5906 17.7144 9.46707 18.3233L8.9158 16.4008C9.97758 16.0963 10.5915 14.9888 10.287 13.927L9.51526 11.2355L11.3275 10.2997ZM9.46707 18.3233C7.34351 18.9322 5.1284 17.7044 4.51948 15.5808L3.63744 12.5048L5.67021 12.338L6.442 15.0295C6.74646 16.0913 7.85402 16.7053 8.9158 16.4008L9.46707 18.3233Z" fill="#1565C0" mask="url(#path-2-inside-1_1_2)"/>
<path d="M5.99415 6.21179C7.37446 5.81599 8.8138 6.61383 9.2096 7.99415L9.92615 10.4931L4.92834 11.9262L4.21179 9.42725C3.81599 8.04693 4.61383 6.60759 5.99415 6.21179Z" fill="#2196F3" stroke="#1565C0" stroke-width="0.8"/>
</svg>
