<svg width="24" height="24" viewBox="0 0 24 24" fill="none" xmlns="http://www.w3.org/2000/svg">
<circle cx="12" cy="12" r="12" fill="#F7F7F7" fill-opacity="0.933333"/>
<mask id="path-2-inside-1_17_46" fill="white">
<path d="M16.6845 14.2066C17.2761 16.2697 16.0832 18.4217 14.0201 19.0133V19.0133C11.9571 19.6049 9.80503 18.412 9.21345 16.3489L8.1423 12.6134L15.6134 10.4711L16.6845 14.2066Z"/>
</mask>
<path d="M16.6845 14.2066C17.2761 16.2697 16.0832 18.4217 14.0201 19.0133V19.0133C11.9571 19.6049 9.80503 18.412 9.21345 16.3489L8.1423 12.6134L15.6134 10.4711L16.6845 14.2066Z" fill="white"/>
<path d="M17.6458 13.931C18.3896 16.525 16.8897 19.2308 14.2958 19.9746L14.2958 19.9746C11.7018 20.7184 8.99599 19.2185 8.25218 16.6246L10.1747 16.0733C10.6141 17.6055 12.2123 18.4914 13.7445 18.052C15.2767 17.6127 16.1626 16.0145 15.7233 14.4823L17.6458 13.931ZM7.04322 12.4084L16.4368 9.71481L14.7899 11.2273L9.24138 12.8184L7.04322 12.4084ZM16.4368 9.71481L17.6458 13.931C18.3896 16.525 16.8897 19.2308 14.2958 19.9746L13.7445 18.052C15.2767 17.6127 16.1626 16.0145 15.7233 14.4823L14.7899 11.2273L16.4368 9.71481ZM14.2958 19.9746C11.7018 20.7184 8.99599 19.2185 8.25218 16.6246L7.04322 12.4084L9.24138 12.8184L10.1747 16.0733C10.6141 17.6055 12.2123 18.4914 13.7445 18.052L14.2958 19.9746Z" fill="#1565C0" mask="url(#path-2-inside-1_17_46)"/>
<mask id="path-4-inside-2_17_46" fill="white">
<path d="M7.07115 8.87784C6.47957 6.81476 7.67246 4.66273 9.73554 4.07115V4.07115C11.7986 3.47957 13.9507 4.67246 14.5422 6.73554L15.6134 10.4711L8.1423 12.6134L7.07115 8.87784Z"/>
</mask>
<path d="M7.07115 8.87784C6.47957 6.81476 7.67246 4.66273 9.73554 4.07115V4.07115C11.7986 3.47957 13.9507 4.67246 14.5422 6.73554L15.6134 10.4711L8.1423 12.6134L7.07115 8.87784Z" fill="#2196F3"/>
<path d="M6.10989 9.15348C5.36608 6.55951 6.86593 3.8537 9.4599 3.10989L9.4599 3.10989C12.0539 2.36608 14.7597 3.86593 15.5035 6.4599L13.581 7.01118C13.1416 5.47899 11.5434 4.59306 10.0112 5.03241C8.47899 5.47176 7.59306 7.07001 8.03241 8.6022L6.10989 9.15348ZM16.7125 10.6761L7.31886 13.3696L8.96574 11.8571L14.5143 10.2661L16.7125 10.6761ZM7.31886 13.3696L6.10989 9.15348C5.36608 6.55951 6.86593 3.8537 9.4599 3.10989L10.0112 5.03241C8.47899 5.47176 7.59306 7.07001 8.03241 8.6022L8.96574 11.8571L7.31886 13.3696ZM9.4599 3.10989C12.0539 2.36608 14.7597 3.86593 15.5035 6.4599L16.7125 10.6761L14.5143 10.2661L13.581 7.01118C13.1416 5.47899 11.5434 4.59306 10.0112 5.03241L9.4599 3.10989Z" fill="#1565C0" mask="url(#path-4-inside-2_17_46)"/>
</svg>
