<svg width="10" height="14" viewBox="0 0 10 14" fill="none" xmlns="http://www.w3.org/2000/svg">
<mask id="path-1-inside-1_11_63" fill="white">
<path d="M8.24831 8.65136C8.705 10.244 7.7841 11.9054 6.19143 12.3621C4.59876 12.8187 2.93743 11.8979 2.48074 10.3052L1.65382 7.4214L7.42139 5.76757L8.24831 8.65136Z"/>
</mask>
<path d="M8.24831 8.65136C8.705 10.244 7.7841 11.9054 6.19143 12.3621C4.59876 12.8187 2.93743 11.8979 2.48074 10.3052L1.65382 7.4214L7.42139 5.76757L8.24831 8.65136Z" fill="white"/>
<path d="M9.20957 8.37572C9.81849 10.4993 8.59063 12.7144 6.46707 13.3233C4.34351 13.9322 2.1284 12.7044 1.51947 10.5808L3.442 10.0295C3.74646 11.0913 4.85402 11.7053 5.9158 11.4008C6.97758 11.0963 7.59151 9.98877 7.28704 8.92699L9.20957 8.37572ZM0.637435 7.50478L8.32753 5.29968L6.51526 6.23546L2.67021 7.33801L0.637435 7.50478ZM8.32753 5.29968L9.20957 8.37572C9.81849 10.4993 8.59063 12.7144 6.46707 13.3233L5.9158 11.4008C6.97758 11.0963 7.59151 9.98877 7.28704 8.92699L6.51526 6.23546L8.32753 5.29968ZM6.46707 13.3233C4.34351 13.9322 2.1284 12.7044 1.51947 10.5808L0.637435 7.50478L2.67021 7.33801L3.442 10.0295C3.74646 11.0913 4.85402 11.7053 5.9158 11.4008L6.46707 13.3233Z" fill="#1565C0" mask="url(#path-1-inside-1_11_63)"/>
<path d="M2.99415 1.21179C4.37446 0.815993 5.8138 1.61383 6.2096 2.99415L6.92615 5.49305L1.92834 6.92615L1.21179 4.42725C0.815993 3.04693 1.61383 1.60759 2.99415 1.21179Z" fill="#2196F3" stroke="#1565C0" stroke-width="0.8"/>
</svg>
